<svg width="33" height="33" viewBox="0 0 33 33" fill="none" xmlns="http://www.w3.org/2000/svg">
<path fill-rule="evenodd" clip-rule="evenodd" d="M13.7706 10.3583C13.984 9.92567 14.4442 9.625 14.9761 9.625H18.0239C18.5558 9.625 19.0152 9.92567 19.2294 10.3583C19.7498 10.3627 20.1559 10.3855 20.5186 10.5219C20.9516 10.6849 21.3281 10.9619 21.6052 11.3212C21.8848 11.6835 22.0166 12.1477 22.1964 12.7864L22.7618 14.7825L22.9752 15.3993L22.9935 15.4213C23.68 16.2675 23.3531 17.5259 22.6993 20.042C22.2833 21.6429 22.0761 22.4429 21.4558 22.9093C20.8356 23.375 19.9784 23.375 18.2639 23.375H14.7361C13.0216 23.375 12.1644 23.375 11.5442 22.9093C10.9239 22.4429 10.7159 21.6429 10.3007 20.042C9.6469 17.5259 9.32001 16.2675 10.0065 15.4213L10.0248 15.3993L10.2382 14.7825L10.8036 12.7864C10.9841 12.1477 11.116 11.6827 11.3948 11.3205C11.672 10.9614 12.0485 10.6847 12.4814 10.5219C12.8441 10.3855 13.2495 10.362 13.7706 10.3583ZM13.7722 11.4605C13.2677 11.4657 13.0651 11.484 12.8974 11.5471C12.6642 11.6348 12.4614 11.784 12.3122 11.9775C12.1781 12.1513 12.0989 12.3941 11.8779 13.1765L11.4436 14.7085C12.2208 14.575 13.283 14.575 14.7353 14.575H18.2639C19.717 14.575 20.7784 14.575 21.5556 14.707L21.1221 13.1751C20.9011 12.3926 20.8219 12.1499 20.6878 11.9761C20.5386 11.7825 20.3358 11.6334 20.1026 11.5456C19.9349 11.4825 19.7323 11.4642 19.2278 11.4591C19.1196 11.6782 18.9491 11.8634 18.736 11.993C18.5229 12.1227 18.276 12.1916 18.0239 12.1917H14.9761C14.724 12.1916 14.4772 12.1229 14.2641 11.9933C14.051 11.8638 13.8805 11.6796 13.7722 11.4605Z" fill="white" style="fill:white;fill-opacity:1;"/>
<circle cx="16.5" cy="16.5" r="16" stroke="white" style="stroke:white;stroke-opacity:1;"/>
</svg>
