<svg width="32" height="32" viewBox="0 0 32 32" fill="none" xmlns="http://www.w3.org/2000/svg">
<g filter="url(#filter0_d_1_972)">
<circle cx="16" cy="12" r="12" fill="white" style="fill:white;fill-opacity:1;"/>
</g>
<path fill-rule="evenodd" clip-rule="evenodd" d="M14.015 7.53333C14.1702 7.21867 14.5049 7 14.8917 7H17.1083C17.4951 7 17.8293 7.21867 17.985 7.53333C18.3635 7.53653 18.6588 7.55307 18.9226 7.65227C19.2375 7.77081 19.5114 7.97227 19.7128 8.2336C19.9162 8.49707 20.0121 8.83467 20.1429 9.2992L20.5541 10.7509L20.7092 11.1995L20.7225 11.2155C21.2218 11.8309 20.9841 12.7461 20.5086 14.576C20.206 15.7403 20.0553 16.3221 19.6042 16.6613C19.1531 17 18.5297 17 17.2829 17H14.7171C13.4703 17 12.8469 17 12.3958 16.6613C11.9447 16.3221 11.7934 15.7403 11.4914 14.576C11.0159 12.7461 10.7782 11.8309 11.2775 11.2155L11.2908 11.1995L11.4459 10.7509L11.8571 9.2992C11.9885 8.83467 12.0843 8.49653 12.2872 8.23307C12.4887 7.97194 12.7626 7.77067 13.0774 7.65227C13.3412 7.55307 13.636 7.536 14.015 7.53333ZM14.0161 8.33493C13.6493 8.33867 13.5019 8.352 13.38 8.39787C13.2104 8.4617 13.0629 8.57019 12.9544 8.71093C12.8568 8.83733 12.7992 9.01387 12.6385 9.58293L12.3226 10.6971C12.8879 10.6 13.6604 10.6 14.7166 10.6H17.2829C18.3396 10.6 19.1116 10.6 19.6768 10.696L19.3615 9.58187C19.2008 9.0128 19.1432 8.83627 19.0456 8.70987C18.9371 8.56912 18.7896 8.46063 18.62 8.3968C18.4981 8.35093 18.3507 8.3376 17.9839 8.33387C17.9052 8.49325 17.7812 8.6279 17.6262 8.72221C17.4712 8.81651 17.2917 8.8666 17.1083 8.86667H14.8917C14.7084 8.86665 14.5289 8.81664 14.3739 8.72243C14.2189 8.62823 14.0949 8.49422 14.0161 8.33493Z" fill="black" style="fill:black;fill-opacity:1;"/>
<defs>
<filter id="filter0_d_1_972" x="0" y="0" width="32" height="32" filterUnits="userSpaceOnUse" color-interpolation-filters="sRGB">
<feFlood flood-opacity="0" result="BackgroundImageFix"/>
<feColorMatrix in="SourceAlpha" type="matrix" values="0 0 0 0 0 0 0 0 0 0 0 0 0 0 0 0 0 0 127 0" result="hardAlpha"/>
<feOffset dy="4"/>
<feGaussianBlur stdDeviation="2"/>
<feComposite in2="hardAlpha" operator="out"/>
<feColorMatrix type="matrix" values="0 0 0 0 0 0 0 0 0 0 0 0 0 0 0 0 0 0 0.25 0"/>
<feBlend mode="normal" in2="BackgroundImageFix" result="effect1_dropShadow_1_972"/>
<feBlend mode="normal" in="SourceGraphic" in2="effect1_dropShadow_1_972" result="shape"/>
</filter>
</defs>
</svg>
