<svg width="17" height="15" viewBox="0 0 17 15" fill="none" xmlns="http://www.w3.org/2000/svg">
<path d="M14.4755 6.75009H0.739073C0.543059 6.75009 0.355073 6.8291 0.21647 6.96974C0.0778665 7.11037 0 7.30111 0 7.5C0 7.69889 0.0778665 7.88963 0.21647 8.03026C0.355073 8.1709 0.543059 8.24991 0.739073 8.24991H14.4755L9.08468 13.7182C8.94591 13.859 8.86794 14.05 8.86794 14.2491C8.86794 14.4483 8.94591 14.6393 9.08468 14.7801C9.22346 14.9209 9.41169 15 9.60795 15C9.80421 15 9.99243 14.9209 10.1312 14.7801L16.7829 8.03093C16.8517 7.96127 16.9063 7.87852 16.9436 7.78741C16.9808 7.69631 17 7.59864 17 7.5C17 7.40136 16.9808 7.30369 16.9436 7.21259C16.9063 7.12148 16.8517 7.03873 16.7829 6.96907L10.1312 0.219919C9.99243 0.0791073 9.80421 0 9.60795 0C9.41169 0 9.22346 0.0791073 9.08468 0.219919C8.94591 0.360732 8.86794 0.551714 8.86794 0.750853C8.86794 0.949991 8.94591 1.14097 9.08468 1.28179L14.4755 6.75009Z" fill="black" style="fill:black;fill-opacity:1;"/>
</svg>
