<svg width="106" height="49" viewBox="0 0 106 49" fill="none" xmlns="http://www.w3.org/2000/svg">
<path d="M49.3481 3.08248V6.16495H47.4501H45.5521V8.7732V11.3814H47.4501H49.3481V20.2732V29.165L48.4229 28.5485C44.5082 25.9639 38.4821 27.3155 35.3029 31.4887C33.8319 33.433 33.2151 35.401 33.2151 38.1753C33.2151 42.799 35.3029 46.2134 39.2887 48.0629C40.5461 48.6557 40.9495 48.7268 43.1796 48.7268C45.9792 48.7268 47.0942 48.3711 48.7076 46.9485L49.5854 46.1897V47.2804V48.3711H52.6696H55.7539V29.8763V11.3814H58.1264H60.4989V8.7732V6.16495H58.1264H55.7539V3.08248V1.90921e-06H52.551H49.3481V3.08248ZM46.1452 33.4567C47.5687 33.8598 48.9923 35.401 49.3007 36.9186C50.226 41.234 45.8605 44.3402 41.9459 42.1588C39.8344 40.9732 39.0752 37.8433 40.3326 35.6144C41.4477 33.6464 43.749 32.7928 46.1452 33.4567Z" fill="black" style="fill:black;fill-opacity:1;"/>
<path d="M9.8459 6.02271C8.49357 6.44951 7.82927 6.82889 6.95144 7.65879L6.16851 8.39384V7.27941V6.16497H3.08426H0V20.2732V34.3815H3.20288H6.40577V29.8763V25.3949L7.25987 25.9639C9.91707 27.766 14.4723 27.6712 17.5565 25.7268C20.9018 23.6165 22.5388 20.534 22.5388 16.3609C22.5388 11.1681 19.7155 7.2557 15.0654 6.02271C13.5945 5.61961 11.1033 5.61961 9.8459 6.02271ZM12.6455 11.8794C13.6656 12.1639 15.0417 13.2784 15.5399 14.2268C17.4854 17.9969 13.8792 22.2887 9.751 21.1031C7.56829 20.4866 6.28714 18.7794 6.28714 16.4794C6.28714 13.1124 9.2765 10.931 12.6455 11.8794Z" fill="black" style="fill:black;fill-opacity:1;"/>
<path d="M31.8391 6.04641C26.9518 7.42167 23.9624 11.3578 23.9624 16.4557C23.9624 19.7041 24.8165 21.933 26.8331 24.067C28.8498 26.2011 31.507 27.2681 34.8759 27.2681C38.1025 27.2681 40.9733 26.1773 42.8238 24.2804C43.844 23.2371 44.9116 21.3639 45.2201 20.0835L45.3624 19.4433H42.0646H38.7668L38.2449 20.1547C37.4857 21.1743 36.4418 21.6248 34.8759 21.6248C33.0254 21.6248 31.7205 20.8897 30.9376 19.3959C30.2021 17.9732 29.8937 18.0206 38.1025 18.0206H45.6234L45.481 15.6969C45.2201 10.931 43.2272 7.84848 39.4311 6.37837C37.6755 5.71446 33.6897 5.52477 31.8391 6.04641ZM36.8451 11.2392C37.6992 11.5712 38.9092 12.8753 38.9092 13.4206C38.9092 13.7052 38.1974 13.7526 34.7573 13.7526H30.5817L30.9376 13.0887C31.3646 12.2825 32.2187 11.4763 32.9779 11.1681C33.8558 10.8361 35.9673 10.8598 36.8451 11.2392Z" fill="black" style="fill:black;fill-opacity:1;"/>
<path d="M96.0864 11.1206C96.0864 11.2392 96.3237 11.6185 96.6084 11.9979C97.1066 12.6144 97.1066 12.6381 96.6795 12.4721C94.9713 11.7608 92.6226 11.7371 90.8669 12.3773L90.0365 12.6855L91.6973 12.8041C94.7104 13.0649 97.415 14.8196 98.5301 17.2855C99.1944 18.7082 99.2181 21.2453 98.625 22.7392C97.6285 25.1814 95.0188 27.5763 92.9784 27.8845C92.1243 28.0268 91.982 28.169 90.6059 30.5165C89.7993 31.868 89.0875 32.935 89.0401 32.8639C88.9689 32.7928 88.3046 31.702 87.5691 30.4216L86.2168 28.0979L82.2547 28.0268C80.072 28.0031 78.2926 28.0268 78.2926 28.0979C78.2926 28.169 79.7873 30.3979 81.6141 33.0536C83.441 35.7093 84.9356 37.9381 84.9356 38.0093C84.9356 38.0804 83.3935 40.5227 81.4955 43.4392L78.0791 48.7268L81.8039 48.7979C83.8443 48.8216 85.6237 48.8216 85.766 48.7505C85.9321 48.7031 86.715 47.4938 87.5454 46.0948C89.2536 43.1309 88.874 43.0835 91.1753 46.6876L92.5514 48.8453H96.3237H100.096L96.6795 43.6288C94.7815 40.7598 93.2394 38.3412 93.2394 38.2464C93.2394 38.1515 93.9512 36.9897 94.8527 35.6381L96.4423 33.2196L97.6285 33.3381C98.3166 33.433 99.2656 33.3618 99.8824 33.1721L100.95 32.8876L100.072 32.6268L99.1707 32.366L100.381 31.9392C102.445 31.2041 104.627 28.6907 104.627 27.0546C104.627 26.5093 104.604 26.5093 104.034 26.8886L103.417 27.2917L104.129 26.035C105.576 23.4742 105.98 19.5144 105.031 17.3093L104.675 16.4794L104.651 17.2381C104.604 18.7556 104.343 18.8505 103.916 17.4989C103.228 15.2701 101.377 13.0886 99.2893 12.0216C98.2691 11.5237 96.0864 10.9072 96.0864 11.1206Z" fill="black" style="fill:black;fill-opacity:1;"/>
<path d="M65.5286 27.6237C60.6412 28.9989 57.6519 32.935 57.6519 38.033C57.6519 41.2814 58.506 43.5103 60.5226 45.6443C62.5392 47.7783 65.1964 48.8453 68.5654 48.8453C71.792 48.8453 74.6627 47.7546 76.5133 45.8577C77.5335 44.8144 78.6011 42.9412 78.9095 41.6608L79.0519 41.0206H75.7541H72.4563L71.9343 41.7319C71.1751 42.7515 70.1312 43.202 68.5654 43.202C66.7148 43.202 65.4099 42.467 64.627 40.9732C63.8915 39.5505 63.5831 39.5979 71.792 39.5979H79.3128L79.1705 37.2742C78.9095 32.5082 76.9166 29.4257 73.1206 27.9556C71.3649 27.2917 67.3791 27.102 65.5286 27.6237ZM70.5346 32.8165C71.3887 33.1484 72.5986 34.4526 72.5986 34.9979C72.5986 35.2824 71.8869 35.3299 68.4468 35.3299H64.2711L64.627 34.666C65.0541 33.8598 65.9082 33.0536 66.6674 32.7453C67.5452 32.4134 69.6567 32.4371 70.5346 32.8165Z" fill="black" style="fill:black;fill-opacity:1;"/>
</svg>
