<svg width="106" height="49" viewBox="0 0 106 49" fill="none" xmlns="http://www.w3.org/2000/svg">
<path d="M49.3481 3.23714V6.31961H47.4501H45.5521V8.92786V11.5361H47.4501H49.3481V20.4279V29.3196L48.4229 28.7031C44.5082 26.1186 38.4821 27.4701 35.3029 31.6433C33.8319 33.5877 33.2151 35.5557 33.2151 38.3299C33.2151 42.9536 35.3029 46.3681 39.2887 48.2176C40.5461 48.8103 40.9495 48.8815 43.1796 48.8815C45.9792 48.8815 47.0942 48.5258 48.7076 47.1031L49.5854 46.3444V47.4351V48.5258H52.6696H55.7539V30.031V11.5361H58.1264H60.4989V8.92786V6.31961H58.1264H55.7539V3.23714V0.154665H52.551H49.3481V3.23714ZM46.1452 33.6114C47.5687 34.0145 48.9923 35.5557 49.3007 37.0732C50.226 41.3887 45.8605 44.4949 41.9459 42.3134C39.8344 41.1279 39.0752 37.998 40.3326 35.7691C41.4477 33.8011 43.749 32.9474 46.1452 33.6114Z" fill="white" style="fill:white;fill-opacity:1;"/>
<path d="M9.8459 6.17737C8.49357 6.60417 7.82927 6.98356 6.95144 7.81345L6.16851 8.5485V7.43407V6.31964H3.08426H0V20.4279V34.5361H3.20288H6.40577V30.031V25.5495L7.25987 26.1186C9.91707 27.9207 14.4723 27.8258 17.5565 25.8815C20.9018 23.7712 22.5388 20.6887 22.5388 16.5155C22.5388 11.3227 19.7155 7.41036 15.0654 6.17737C13.5945 5.77428 11.1033 5.77428 9.8459 6.17737ZM12.6455 12.0341C13.6656 12.3186 15.0417 13.433 15.5399 14.3815C17.4854 18.1516 13.8792 22.4433 9.751 21.2578C7.56829 20.6413 6.28714 18.9341 6.28714 16.6341C6.28714 13.2671 9.2765 11.0856 12.6455 12.0341Z" fill="white" style="fill:white;fill-opacity:1;"/>
<path d="M31.839 6.20096C26.9516 7.57621 23.9623 11.5123 23.9623 16.6102C23.9623 19.8587 24.8164 22.0876 26.833 24.2216C28.8496 26.3556 31.5068 27.4226 34.8758 27.4226C38.1024 27.4226 40.9731 26.3319 42.8237 24.435C43.8439 23.3917 44.9115 21.5185 45.2199 20.2381L45.3623 19.5979H42.0645H38.7667L38.2448 20.3092C37.4856 21.3288 36.4417 21.7793 34.8758 21.7793C33.0253 21.7793 31.7204 21.0443 30.9374 19.5504C30.202 18.1278 29.8935 18.1752 38.1024 18.1752H45.6233L45.4809 15.8515C45.2199 11.0855 43.227 8.00302 39.431 6.53291C37.6754 5.869 33.6896 5.67931 31.839 6.20096ZM36.845 11.3937C37.6991 11.7257 38.9091 13.0298 38.9091 13.5752C38.9091 13.8597 38.1973 13.9071 34.7572 13.9071H30.5816L30.9374 13.2432C31.3645 12.437 32.2186 11.6309 32.9778 11.3226C33.8556 10.9906 35.9672 11.0144 36.845 11.3937Z" fill="white" style="fill:white;fill-opacity:1;"/>
<path d="M96.0864 11.2753C96.0864 11.3938 96.3237 11.7732 96.6084 12.1526C97.1066 12.7691 97.1066 12.7928 96.6795 12.6268C94.9713 11.9155 92.6226 11.8918 90.8669 12.532L90.0365 12.8402L91.6973 12.9588C94.7104 13.2196 97.415 14.9742 98.5301 17.4402C99.1944 18.8629 99.2181 21.4 98.625 22.8938C97.6285 25.3361 95.0188 27.7309 92.9784 28.0392C92.1243 28.1814 91.982 28.3237 90.6059 30.6711C89.7993 32.0227 89.0875 33.0897 89.0401 33.0186C88.9689 32.9474 88.3046 31.8567 87.5691 30.5763L86.2168 28.2526L82.2547 28.1814C80.072 28.1577 78.2926 28.1814 78.2926 28.2526C78.2926 28.3237 79.7873 30.5526 81.6141 33.2082C83.441 35.8639 84.9356 38.0928 84.9356 38.1639C84.9356 38.2351 83.3935 40.6773 81.4955 43.5938L78.0791 48.8814L81.8039 48.9526C83.8443 48.9763 85.6237 48.9763 85.766 48.9052C85.9321 48.8577 86.715 47.6485 87.5454 46.2495C89.2536 43.2856 88.874 43.2381 91.1753 46.8423L92.5514 49H96.3237H100.096L96.6795 43.7835C94.7815 40.9144 93.2394 38.4959 93.2394 38.401C93.2394 38.3062 93.9512 37.1443 94.8527 35.7928L96.4423 33.3742L97.6285 33.4928C98.3166 33.5876 99.2656 33.5165 99.8824 33.3268L100.95 33.0423L100.072 32.7814L99.1707 32.5206L100.381 32.0938C102.445 31.3588 104.627 28.8454 104.627 27.2093C104.627 26.6639 104.604 26.6639 104.034 27.0433L103.417 27.4464L104.129 26.1897C105.576 23.6289 105.98 19.6691 105.031 17.4639L104.675 16.634L104.651 17.3928C104.604 18.9103 104.343 19.0052 103.916 17.6536C103.228 15.4247 101.377 13.2433 99.2893 12.1763C98.2691 11.6784 96.0864 11.0619 96.0864 11.2753Z" fill="white" style="fill:white;fill-opacity:1;"/>
<path d="M65.5286 27.7783C60.6412 29.1536 57.6519 33.0897 57.6519 38.1876C57.6519 41.4361 58.506 43.6649 60.5226 45.799C62.5392 47.933 65.1964 49 68.5654 49C71.792 49 74.6627 47.9093 76.5133 46.0124C77.5335 44.9691 78.6011 43.0959 78.9095 41.8155L79.0519 41.1753H75.7541H72.4563L71.9343 41.8866C71.1751 42.9062 70.1312 43.3567 68.5654 43.3567C66.7148 43.3567 65.4099 42.6216 64.627 41.1278C63.8915 39.7052 63.5831 39.7526 71.792 39.7526H79.3128L79.1705 37.4289C78.9095 32.6629 76.9166 29.5804 73.1206 28.1103C71.3649 27.4464 67.3791 27.2567 65.5286 27.7783ZM70.5346 32.9711C71.3887 33.3031 72.5986 34.6072 72.5986 35.1526C72.5986 35.4371 71.8869 35.4845 68.4468 35.4845H64.2711L64.627 34.8206C65.0541 34.0144 65.9082 33.2082 66.6674 32.9C67.5452 32.568 69.6567 32.5918 70.5346 32.9711Z" fill="white" style="fill:white;fill-opacity:1;"/>
</svg>
