<svg width="33" height="33" viewBox="0 0 33 33" fill="none" xmlns="http://www.w3.org/2000/svg">
<path d="M18.5892 23.0188C18.3517 23.2563 18.0574 23.375 17.7064 23.375C17.3553 23.375 17.061 23.2563 16.8235 23.0188L11.3717 17.567C11.2581 17.4534 11.1677 17.3191 11.1004 17.1643C11.033 17.0094 10.9996 16.8442 11 16.6686V12.239C11 11.8983 11.1214 11.6067 11.3643 11.3643C11.6071 11.1218 11.8987 11.0004 12.2391 11H16.6687C16.8442 11 17.0094 11.0337 17.1643 11.101C17.3192 11.1683 17.4534 11.2585 17.567 11.3717L23.0188 16.839C23.2563 17.0765 23.375 17.3683 23.375 17.7144C23.375 18.0605 23.2563 18.3521 23.0188 18.5892L18.5892 23.0188ZM13.7879 14.7171C14.046 14.7171 14.2655 14.6269 14.4464 14.4464C14.6273 14.2659 14.7176 14.0464 14.7171 13.7879C14.7171 13.5297 14.6269 13.3104 14.4464 13.1299C14.2659 12.9494 14.0464 12.859 13.7879 12.8586C13.5297 12.8586 13.3104 12.949 13.1299 13.1299C12.9494 13.3108 12.859 13.5301 12.8586 13.7879C12.8586 14.046 12.949 14.2655 13.1299 14.4464C13.3108 14.6273 13.5301 14.7176 13.7879 14.7171Z" fill="white" style="fill:white;fill-opacity:1;"/>
<circle cx="16.5" cy="16.5" r="16" stroke="white" style="stroke:white;stroke-opacity:1;"/>
</svg>
