<svg width="34" height="33" viewBox="0 0 34 33" fill="none" xmlns="http://www.w3.org/2000/svg">
<rect width="33.3922" height="33" rx="16.5" fill="white" style="fill:white;fill-opacity:1;"/>
<path fill-rule="evenodd" clip-rule="evenodd" d="M15.4993 7C14.1439 7.00012 12.8081 7.32436 11.6035 7.94569C10.3989 8.56702 9.36037 9.46742 8.57451 10.5718C7.78866 11.6761 7.27829 12.9523 7.08599 14.294C6.89368 15.6357 7.02503 17.004 7.46906 18.2846C7.91308 19.5652 8.65692 20.7211 9.63851 21.6557C10.6201 22.5904 11.811 23.2768 13.1118 23.6576C14.4126 24.0384 15.7856 24.1026 17.1163 23.8449C18.447 23.5872 19.6967 23.015 20.7613 22.176L24.4133 25.828C24.6019 26.0102 24.8545 26.111 25.1167 26.1087C25.3789 26.1064 25.6297 26.0012 25.8151 25.8158C26.0005 25.6304 26.1057 25.3796 26.108 25.1174C26.1102 24.8552 26.0094 24.6026 25.8273 24.414L22.1753 20.762C23.1633 19.5086 23.7784 18.0024 23.9504 16.4157C24.1223 14.8291 23.8441 13.226 23.1475 11.7901C22.4509 10.3542 21.3642 9.14336 20.0116 8.29623C18.659 7.44911 17.0952 6.99989 15.4993 7ZM8.99928 15.5C8.99928 13.7761 9.6841 12.1228 10.9031 10.9038C12.1221 9.68482 13.7754 9 15.4993 9C17.2232 9 18.8765 9.68482 20.0955 10.9038C21.3145 12.1228 21.9993 13.7761 21.9993 15.5C21.9993 17.2239 21.3145 18.8772 20.0955 20.0962C18.8765 21.3152 17.2232 22 15.4993 22C13.7754 22 12.1221 21.3152 10.9031 20.0962C9.6841 18.8772 8.99928 17.2239 8.99928 15.5Z" fill="black" style="fill:black;fill-opacity:1;"/>
</svg>
